<svg xmlns="http://www.w3.org/2000/svg" aria-hidden="true" style="position:absolute;width:0;height:0;overflow:hidden"><defs><symbol id="icon-caret" viewBox="0 0 32 32"><path fill="#ff3503" d="M16 3c-2.571 0-5.085.762-7.222 2.191S4.974 8.65 3.99 11.025a13 13 0 0 0 2.818 14.167 13.002 13.002 0 0 0 20.001-1.97A13 13 0 0 0 29 16 13.02 13.02 0 0 0 16 3m0 24a11 11 0 0 1-10.162-6.791A10.999 10.999 0 1 1 27 16a11.015 11.015 0 0 1-11 11m5.707-13.707a1 1 0 0 1 .293.708 1 1 0 0 1-.293.708l-5 5a1 1 0 0 1-.708.293 1 1 0 0 1-.708-.293l-5-5a1 1 0 1 1 1.414-1.414l4.293 4.294 4.293-4.294a1 1 0 0 1 .708-.293 1 1 0 0 1 .708.293z" style="fill:var(--color1, #ff3503)"/></symbol><symbol id="icon-close" viewBox="0 0 32 32"><path fill="#fff" d="m8.532 25.333-1.867-1.867 7.467-7.467-7.467-7.467 1.867-1.867 7.467 7.467 7.467-7.467 1.867 1.867-7.467 7.467 7.467 7.467-1.867 1.867-7.467-7.467z" style="fill:var(--color2, #fff)"/></symbol><symbol id="icon-email" viewBox="0 0 32 32"><path fill="#fff" d="M28.415 3.585a2 2 0 0 0-1.958-.51h-.019l-23.993 7.28a1.998 1.998 0 0 0-1.182 2.916 2 2 0 0 0 .87.809l10.615 5.17 5.163 10.609a1.98 1.98 0 0 0 1.978 1.133 1.98 1.98 0 0 0 1.75-1.438l7.275-23.993v-.019a2 2 0 0 0-.5-1.958zm-8.686 25.396-.006.017v-.009l-5.007-10.288 6-6a1 1 0 0 0-1.413-1.414l-6 6L3.02 12.28l23.981-7.281L19.73 28.98z" style="fill:var(--color2, #fff)"/></symbol><symbol id="icon-menu" viewBox="0 0 32 32"><path fill="#fff" d="M4 24v-2.667h24V24zm0-6.667v-2.667h24v2.667zm0-6.666V8h24v2.667z" style="fill:var(--color2, #fff)"/></symbol><symbol id="icon-interaction1" viewBox="0 0 124 124" fill="none">
  <g filter="url(#filter0_d_136_1585)">
    <path d="M62 28C59 37 53 37 53 40C53 43 59 46 62 46C65 46 71 43 71 40C71 37 65 37 62 28ZM44 49C41 49 41 55 32 58C41 61 41 67 44 67C47 67 50 61 50 58C50 55 47 49 44 49ZM80 49C77 49 74 55 74 58C74 61 77 67 80 67C83 67 83 61 92 58C83 55 83 49 80 49ZM62.2617 49.0037C61.0583 48.9687 59.8601 49.1755 58.738 49.6119C57.616 50.0482 56.5928 50.7053 55.7292 51.5441C54.8656 52.383 54.1791 53.3865 53.7103 54.4955C53.2415 55.6044 53 56.7961 53 58C53 60.3869 53.9482 62.6761 55.636 64.364C57.3239 66.0518 59.6131 67 62 67C64.3869 67 66.6761 66.0518 68.364 64.364C70.0518 62.6761 71 60.3869 71 58C71 55.6584 70.0874 53.4089 68.4559 51.7292C66.8243 50.0495 64.6024 49.0719 62.2617 49.0037ZM62 70C59 70 53 73 53 76C53 79 59 79 62 88C65 79 71 79 71 76C71 73 65 70 62 70Z" fill="#F33C74" />
    <path d="M62 28C59 37 53 37 53 40C53 43 59 46 62 46C65 46 71 43 71 40C71 37 65 37 62 28ZM44 49C41 49 41 55 32 58C41 61 41 67 44 67C47 67 50 61 50 58C50 55 47 49 44 49ZM80 49C77 49 74 55 74 58C74 61 77 67 80 67C83 67 83 61 92 58C83 55 83 49 80 49ZM62.2617 49.0037C61.0583 48.9687 59.8601 49.1755 58.738 49.6119C57.616 50.0482 56.5928 50.7053 55.7292 51.5441C54.8656 52.383 54.1791 53.3865 53.7103 54.4955C53.2415 55.6044 53 56.7961 53 58C53 60.3869 53.9482 62.6761 55.636 64.364C57.3239 66.0518 59.6131 67 62 67C64.3869 67 66.6761 66.0518 68.364 64.364C70.0518 62.6761 71 60.3869 71 58C71 55.6584 70.0874 53.4089 68.4559 51.7292C66.8243 50.0495 64.6024 49.0719 62.2617 49.0037ZM62 70C59 70 53 73 53 76C53 79 59 79 62 88C65 79 71 79 71 76C71 73 65 70 62 70Z" stroke="#F33C74" />
  </g>
  <defs>
    <filter id="filter0_d_136_1585" x="0" y="0" width="124" height="124" filterUnits="userSpaceOnUse" color-interpolation-filters="sRGB">
      <feFlood flood-opacity="0" result="BackgroundImageFix" />
      <feColorMatrix in="SourceAlpha" type="matrix" values="0 0 0 0 0 0 0 0 0 0 0 0 0 0 0 0 0 0 127 0" result="hardAlpha" />
      <feOffset dy="4" />
      <feGaussianBlur stdDeviation="16" />
      <feComposite in2="hardAlpha" operator="out" />
      <feColorMatrix type="matrix" values="0 0 0 0 0.952941 0 0 0 0 0.235294 0 0 0 0 0.454902 0 0 0 0.6 0" />
      <feBlend mode="normal" in2="BackgroundImageFix" result="effect1_dropShadow_136_1585" />
      <feBlend mode="normal" in="SourceGraphic" in2="effect1_dropShadow_136_1585" result="shape" />
    </filter>
  </defs>
</symbol><symbol id="icon-interaction2" viewBox="0 0 123 123" fill="none">
  <g filter="url(#filter0_d_136_1588)">
    <path d="M32 28V32.0362L76.7241 74.3987L32 38.1756V45.5434L76.4928 76.8214L65.6315 74.6305L68.9956 78.4989L60.1829 78.8749L90.887 86.9502L82.6993 55.8185L80.7803 67.3635L77.3678 63.431L79.4531 70.989L49.5438 28H46.7475L64.532 54.1169L43.0733 30.771L55.4451 48.0894L35.0355 28H32ZM86.125 39.5232L82.0958 44.3335L88.9945 70.3597L90.9053 43.1355L86.125 39.523V39.5232ZM57.14 80.5095L54.0181 83.4432L56.7274 86.8957L75.3805 85.2982L57.1398 80.5095H57.14Z" fill="#F33C74" />
    <path d="M32 28V32.0362L76.7241 74.3987L32 38.1756V45.5434L76.4928 76.8214L65.6315 74.6305L68.9956 78.4989L60.1829 78.8749L90.887 86.9502L82.6993 55.8185L80.7803 67.3635L77.3678 63.431L79.4531 70.989L49.5438 28H46.7475L64.532 54.1169L43.0733 30.771L55.4451 48.0894L35.0355 28H32ZM86.125 39.5232L82.0958 44.3335L88.9945 70.3597L90.9053 43.1355L86.125 39.523V39.5232ZM57.14 80.5095L54.0181 83.4432L56.7274 86.8957L75.3805 85.2982L57.1398 80.5095H57.14Z" stroke="#F33C74" />
  </g>
  <defs>
    <filter id="filter0_d_136_1588" x="0" y="0" width="122.905" height="122.95" filterUnits="userSpaceOnUse" color-interpolation-filters="sRGB">
      <feFlood flood-opacity="0" result="BackgroundImageFix" />
      <feColorMatrix in="SourceAlpha" type="matrix" values="0 0 0 0 0 0 0 0 0 0 0 0 0 0 0 0 0 0 127 0" result="hardAlpha" />
      <feOffset dy="4" />
      <feGaussianBlur stdDeviation="16" />
      <feComposite in2="hardAlpha" operator="out" />
      <feColorMatrix type="matrix" values="0 0 0 0 0.952941 0 0 0 0 0.235294 0 0 0 0 0.454902 0 0 0 0.6 0" />
      <feBlend mode="normal" in2="BackgroundImageFix" result="effect1_dropShadow_136_1588" />
      <feBlend mode="normal" in="SourceGraphic" in2="effect1_dropShadow_136_1588" result="shape" />
    </filter>
  </defs>
</symbol><symbol id="icon-interaction3" viewBox="0 0 123 123" fill="none">
  <g filter="url(#filter0_d_136_1591)">
    <path d="M50.1929 28.0002C47.2666 27.9874 44.5154 28.4852 42.0681 29.5187L49.454 47.4237C49.7549 46.924 50.1128 46.4602 50.5321 46.041C51.4194 45.1537 52.5025 44.5354 53.7168 44.1716L60.5755 29.9561C57.0159 28.6799 53.493 28.0146 50.1926 28.0001L50.1929 28.0002ZM39.98 30.578C38.8778 31.2392 37.8567 32.0292 36.9332 32.9527C33.9975 35.888 32.4038 39.8026 32.0545 44.2105L49.0878 56.633C48.394 54.6155 48.134 52.6302 48.3375 50.8384L39.98 30.578ZM62.7542 30.8136L56.4986 43.7782C58.6802 43.77 61.0794 44.3867 63.4374 45.5774L81.0836 44.9127C79.9918 43.5696 78.8109 42.2565 77.5409 40.9865C72.978 36.4236 67.867 32.9986 62.7545 30.8136H62.7542ZM32 47.0599C32.2385 53.4407 34.8388 60.5765 39.5455 67.1714L56.3985 66.5369C55.6448 65.9519 54.9098 65.3061 54.2039 64.6001C53.1281 63.5244 52.1911 62.3819 51.3983 61.2071L32 47.06V47.0599ZM82.824 47.1832L66.9058 47.783C67.6564 48.3662 68.3883 49.0097 69.0914 49.713C70.1751 50.7967 71.118 51.948 71.9146 53.132L90.4634 66.6595C90.0371 60.4307 87.4134 53.5482 82.8241 47.1832H82.824ZM74.2132 57.698C74.9067 59.7217 75.1636 61.7126 74.9539 63.5077L83.2144 83.5324C84.056 82.9676 84.8456 82.3229 85.5744 81.5942C88.6778 78.4907 90.2819 74.2939 90.5006 69.5759L74.2132 57.698ZM73.8307 66.9065C73.532 67.3996 73.1774 67.8575 72.763 68.2719C71.8738 69.1614 70.7876 69.7806 69.5699 70.1441L62.5033 84.79C69.3383 87.1175 75.9998 87.1741 81.17 84.698L73.8307 66.9065ZM59.8708 68.7421L41.2701 69.4426C42.4046 70.8526 43.6364 72.2301 44.9669 73.5601C49.6948 78.2882 55.0113 81.7956 60.3081 83.9664L66.7894 70.5346C64.6135 70.5415 62.222 69.9271 59.8708 68.7421Z" fill="#F33C74" />
    <path d="M50.1929 28.0002C47.2666 27.9874 44.5154 28.4852 42.0681 29.5187L49.454 47.4237C49.7549 46.924 50.1128 46.4602 50.5321 46.041C51.4194 45.1537 52.5025 44.5354 53.7168 44.1716L60.5755 29.9561C57.0159 28.6799 53.493 28.0146 50.1926 28.0001L50.1929 28.0002ZM39.98 30.578C38.8778 31.2392 37.8567 32.0292 36.9332 32.9527C33.9975 35.888 32.4038 39.8026 32.0545 44.2105L49.0878 56.633C48.394 54.6155 48.134 52.6302 48.3375 50.8384L39.98 30.578ZM62.7542 30.8136L56.4986 43.7782C58.6802 43.77 61.0794 44.3867 63.4374 45.5774L81.0836 44.9127C79.9918 43.5696 78.8109 42.2565 77.5409 40.9865C72.978 36.4236 67.867 32.9986 62.7545 30.8136H62.7542ZM32 47.0599C32.2385 53.4407 34.8388 60.5765 39.5455 67.1714L56.3985 66.5369C55.6448 65.9519 54.9098 65.3061 54.2039 64.6001C53.1281 63.5244 52.1911 62.3819 51.3983 61.2071L32 47.06V47.0599ZM82.824 47.1832L66.9058 47.783C67.6564 48.3662 68.3883 49.0097 69.0914 49.713C70.1751 50.7967 71.118 51.948 71.9146 53.132L90.4634 66.6595C90.0371 60.4307 87.4134 53.5482 82.8241 47.1832H82.824ZM74.2132 57.698C74.9067 59.7217 75.1636 61.7126 74.9539 63.5077L83.2144 83.5324C84.056 82.9676 84.8456 82.3229 85.5744 81.5942C88.6778 78.4907 90.2819 74.2939 90.5006 69.5759L74.2132 57.698ZM73.8307 66.9065C73.532 67.3996 73.1774 67.8575 72.763 68.2719C71.8738 69.1614 70.7876 69.7806 69.5699 70.1441L62.5033 84.79C69.3383 87.1175 75.9998 87.1741 81.17 84.698L73.8307 66.9065ZM59.8708 68.7421L41.2701 69.4426C42.4046 70.8526 43.6364 72.2301 44.9669 73.5601C49.6948 78.2882 55.0113 81.7956 60.3081 83.9664L66.7894 70.5346C64.6135 70.5415 62.222 69.9271 59.8708 68.7421Z" stroke="#F33C74" />
  </g>
  <defs>
    <filter id="filter0_d_136_1591" x="0" y="0" width="122.501" height="122.545" filterUnits="userSpaceOnUse" color-interpolation-filters="sRGB">
      <feFlood flood-opacity="0" result="BackgroundImageFix" />
      <feColorMatrix in="SourceAlpha" type="matrix" values="0 0 0 0 0 0 0 0 0 0 0 0 0 0 0 0 0 0 127 0" result="hardAlpha" />
      <feOffset dy="4" />
      <feGaussianBlur stdDeviation="16" />
      <feComposite in2="hardAlpha" operator="out" />
      <feColorMatrix type="matrix" values="0 0 0 0 0.952941 0 0 0 0 0.235294 0 0 0 0 0.454902 0 0 0 0.6 0" />
      <feBlend mode="normal" in2="BackgroundImageFix" result="effect1_dropShadow_136_1591" />
      <feBlend mode="normal" in="SourceGraphic" in2="effect1_dropShadow_136_1591" result="shape" />
    </filter>
  </defs>
</symbol><symbol id="icon-interaction4" viewBox="0 0 124 121" fill="none">
  <g filter="url(#filter0_d_136_1594)">
    <path d="M56.4137 28.0009C50.6443 28.0346 44.9649 29.2405 40.6407 31.4692C45.0707 30.8987 49.1114 30.8711 52.6959 31.3052C50.8984 31.979 49.1863 32.8215 47.6059 33.8069C53.343 32.3135 59.609 32.0675 64.9284 33.2476C59.9864 33.7796 55.7837 34.8371 52.3614 36.2939C61.158 34.9886 68.8418 38.4689 73.3062 45.4761C74.1809 44.3381 75.2827 43.3486 76.5924 42.5842C78.2899 41.5939 80.1393 41.098 81.9754 41.0517C82.2877 41.0439 82.5995 41.0507 82.9102 41.0686C79.8833 35.8966 75.7367 32.6545 71.177 30.9507C68.7183 29.8292 66.0077 28.9682 63.1514 28.5101L63.1519 28.5082C60.9425 28.1536 58.6712 27.9874 56.4137 28.0007V28.0009ZM82.3489 43.3696C82.2489 43.369 82.1489 43.3701 82.0489 43.3729C80.5933 43.4129 79.1247 43.8111 77.7698 44.6016C75.2264 46.0854 73.666 48.6221 73.3154 51.3519C73.6494 51.2456 74.0042 51.1881 74.3713 51.1881C76.3092 51.1881 77.905 52.7844 77.905 54.7222C77.905 56.3885 76.725 57.801 75.1625 58.1647C77.8958 61.7215 82.8368 62.7707 86.8032 60.4565C91.1387 57.927 92.6229 52.3392 90.1149 47.9492C88.4445 45.0251 85.4462 43.389 82.3489 43.3695V43.3696ZM74.3714 53.5244C74.1364 53.5244 73.9214 53.5894 73.7393 53.7006L69.9053 55.0261L70.6599 57.2369L74.4839 55.9146C75.1039 55.8601 75.5692 55.3596 75.5692 54.7221C75.5692 54.0469 75.0467 53.5244 74.3714 53.5244ZM67.6977 55.7896L63.0933 57.3816L63.8479 59.5925L68.4522 58.0002L67.6975 55.7896H67.6977ZM41.1105 57.7315C41.0105 57.7309 40.9105 57.7319 40.8105 57.7346C39.3548 57.7746 37.8863 58.1726 36.5314 58.9631C32.1959 61.4927 30.7117 67.0806 33.2197 71.4706C34.5687 73.8321 36.7843 75.3519 39.2184 75.8599C41.3819 77.9996 43.7734 79.7411 46.2972 81.1221C48.9022 82.9196 51.7403 83.9755 54.6494 84.4009C50.8267 81.8315 48.3257 78.6441 48.041 75.7527C54.7595 83.3442 66.2585 86.0005 75.112 83.4465C79.1178 81.9892 82.3603 79.7834 84.2402 77.0606C76.5148 80.5 68.5168 80.9694 61.5119 79.1156C63.9329 78.3756 66.0869 77.4124 67.9619 76.2579C60.6787 77.4782 54.2444 74.7435 49.8794 68.876C50.3534 66.719 50.0597 64.382 48.8767 62.311C47.2062 59.3872 44.2079 57.751 41.1104 57.7316L41.1105 57.7315ZM60.8852 58.1452L56.5873 59.6315L57.3419 61.8422L61.6398 60.3564L60.8852 58.1454V58.1452ZM54.3799 60.3946L51.1087 61.5259C51.4777 62.2302 51.7667 62.9576 51.9787 63.6971L55.1345 62.6059L54.3799 60.3946Z" fill="#F33C74" />
    <path d="M56.4137 28.0009C50.6443 28.0346 44.9649 29.2405 40.6407 31.4692C45.0707 30.8987 49.1114 30.8711 52.6959 31.3052C50.8984 31.979 49.1863 32.8215 47.6059 33.8069C53.343 32.3135 59.609 32.0675 64.9284 33.2476C59.9864 33.7796 55.7837 34.8371 52.3614 36.2939C61.158 34.9886 68.8418 38.4689 73.3062 45.4761C74.1809 44.3381 75.2827 43.3486 76.5924 42.5842C78.2899 41.5939 80.1393 41.098 81.9754 41.0517C82.2877 41.0439 82.5995 41.0507 82.9102 41.0686C79.8833 35.8966 75.7367 32.6545 71.177 30.9507C68.7183 29.8292 66.0077 28.9682 63.1514 28.5101L63.1519 28.5082C60.9425 28.1536 58.6712 27.9874 56.4137 28.0007V28.0009ZM82.3489 43.3696C82.2489 43.369 82.1489 43.3701 82.0489 43.3729C80.5933 43.4129 79.1247 43.8111 77.7698 44.6016C75.2264 46.0854 73.666 48.6221 73.3154 51.3519C73.6494 51.2456 74.0042 51.1881 74.3713 51.1881C76.3092 51.1881 77.905 52.7844 77.905 54.7222C77.905 56.3885 76.725 57.801 75.1625 58.1647C77.8958 61.7215 82.8368 62.7707 86.8032 60.4565C91.1387 57.927 92.6229 52.3392 90.1149 47.9492C88.4445 45.0251 85.4462 43.389 82.3489 43.3695V43.3696ZM74.3714 53.5244C74.1364 53.5244 73.9214 53.5894 73.7393 53.7006L69.9053 55.0261L70.6599 57.2369L74.4839 55.9146C75.1039 55.8601 75.5692 55.3596 75.5692 54.7221C75.5692 54.0469 75.0467 53.5244 74.3714 53.5244ZM67.6977 55.7896L63.0933 57.3816L63.8479 59.5925L68.4522 58.0002L67.6975 55.7896H67.6977ZM41.1105 57.7315C41.0105 57.7309 40.9105 57.7319 40.8105 57.7346C39.3548 57.7746 37.8863 58.1726 36.5314 58.9631C32.1959 61.4927 30.7117 67.0806 33.2197 71.4706C34.5687 73.8321 36.7843 75.3519 39.2184 75.8599C41.3819 77.9996 43.7734 79.7411 46.2972 81.1221C48.9022 82.9196 51.7403 83.9755 54.6494 84.4009C50.8267 81.8315 48.3257 78.6441 48.041 75.7527C54.7595 83.3442 66.2585 86.0005 75.112 83.4465C79.1178 81.9892 82.3603 79.7834 84.2402 77.0606C76.5148 80.5 68.5168 80.9694 61.5119 79.1156C63.9329 78.3756 66.0869 77.4124 67.9619 76.2579C60.6787 77.4782 54.2444 74.7435 49.8794 68.876C50.3534 66.719 50.0597 64.382 48.8767 62.311C47.2062 59.3872 44.2079 57.751 41.1104 57.7316L41.1105 57.7315ZM60.8852 58.1452L56.5873 59.6315L57.3419 61.8422L61.6398 60.3564L60.8852 58.1454V58.1452ZM54.3799 60.3946L51.1087 61.5259C51.4777 62.2302 51.7667 62.9576 51.9787 63.6971L55.1345 62.6059L54.3799 60.3946Z" stroke="#F33C74" />
  </g>
  <defs>
    <filter id="filter0_d_136_1594" x="0" y="0" width="123.334" height="120.401" filterUnits="userSpaceOnUse" color-interpolation-filters="sRGB">
      <feFlood flood-opacity="0" result="BackgroundImageFix" />
      <feColorMatrix in="SourceAlpha" type="matrix" values="0 0 0 0 0 0 0 0 0 0 0 0 0 0 0 0 0 0 127 0" result="hardAlpha" />
      <feOffset dy="4" />
      <feGaussianBlur stdDeviation="16" />
      <feComposite in2="hardAlpha" operator="out" />
      <feColorMatrix type="matrix" values="0 0 0 0 0.952941 0 0 0 0 0.235294 0 0 0 0 0.454902 0 0 0 0.6 0" />
      <feBlend mode="normal" in2="BackgroundImageFix" result="effect1_dropShadow_136_1594" />
      <feBlend mode="normal" in="SourceGraphic" in2="effect1_dropShadow_136_1594" result="shape" />
    </filter>
  </defs>
</symbol></defs></svg>