<svg xmlns="http://www.w3.org/2000/svg" aria-hidden="true" style="position:absolute;width:0;height:0;overflow:hidden"><defs><symbol id="icon-caret" viewBox="0 0 32 32"><path fill="#ff3503" d="M16 3c-2.571 0-5.085.762-7.222 2.191S4.974 8.65 3.99 11.025a13 13 0 0 0 2.818 14.167 13.002 13.002 0 0 0 20.001-1.97A13 13 0 0 0 29 16 13.02 13.02 0 0 0 16 3m0 24a11 11 0 0 1-10.162-6.791A10.999 10.999 0 1 1 27 16a11.015 11.015 0 0 1-11 11m5.707-13.707a1 1 0 0 1 .293.708 1 1 0 0 1-.293.708l-5 5a1 1 0 0 1-.708.293 1 1 0 0 1-.708-.293l-5-5a1 1 0 1 1 1.414-1.414l4.293 4.294 4.293-4.294a1 1 0 0 1 .708-.293 1 1 0 0 1 .708.293z" style="fill:var(--color1, #ff3503)"/></symbol><symbol id="icon-close" viewBox="0 0 32 32"><path fill="#fff" d="m8.532 25.333-1.867-1.867 7.467-7.467-7.467-7.467 1.867-1.867 7.467 7.467 7.467-7.467 1.867 1.867-7.467 7.467 7.467 7.467-1.867 1.867-7.467-7.467z" style="fill:var(--color2, #fff)"/></symbol><symbol id="icon-email" viewBox="0 0 32 32"><path fill="#fff" d="M28.415 3.585a2 2 0 0 0-1.958-.51h-.019l-23.993 7.28a1.998 1.998 0 0 0-1.182 2.916 2 2 0 0 0 .87.809l10.615 5.17 5.163 10.609a1.98 1.98 0 0 0 1.978 1.133 1.98 1.98 0 0 0 1.75-1.438l7.275-23.993v-.019a2 2 0 0 0-.5-1.958zm-8.686 25.396-.006.017v-.009l-5.007-10.288 6-6a1 1 0 0 0-1.413-1.414l-6 6L3.02 12.28l23.981-7.281L19.73 28.98z" style="fill:var(--color2, #fff)"/></symbol><symbol id="icon-menu" viewBox="0 0 32 32"><path fill="#fff" d="M4 24v-2.667h24V24zm0-6.667v-2.667h24v2.667zm0-6.666V8h24v2.667z" style="fill:var(--color2, #fff)"/></symbol></defs></svg>